<svg width="20" height="20" fill="none" xmlns="http://www.w3.org/2000/svg"><path d="M20 0v20H0V0h20Z" fill="#fff" fill-opacity=".01"/><path d="m3.74935 4.58334.49545 7.92726c.09693 1.5509.1454 2.3264.40424 2.9466.43915 1.0523 1.30654 1.8672 2.38418 2.2398.63518.2197 1.41216.2197 2.96613.2197v0c1.55395 0 2.33095 0 2.96615-.2197 1.0776-.3726 1.945-1.1875 2.3842-2.2398.2588-.6202.3073-1.3957.4042-2.9466l.4954-7.92726m-9.99995 0v0c.36318-1.08954.54477-1.63431.93831-1.98783.10659-.09575.22316-.17977.34771-.25062.45982-.26155 1.03406-.26155 2.18254-.26155h.56289c1.1485 0 1.7227 0 2.1825.26155.1246.07085.2411.15487.3477.25062.3936.35352.5752.89829.9383 1.98783v0M8.33268 9.16668v4.16662M11.666 9.16668v4.16662M2.91602 4.58334H17.0827" stroke="#E5811B" stroke-width="1.5" stroke-linecap="round"/></svg>
