<svg width="20" height="20" fill="none" xmlns="http://www.w3.org/2000/svg"><path d="M20 0v20H0V0h20Z" fill="#fff" fill-opacity=".01"/><path d="M17.0827 9.10714c0 2.71556-1.6864 4.94926-3.4134 6.52486-1.2838 1.1712-1.9257 1.7568-3.66995 1.7568-1.74427 0-2.38616-.5856-3.66993-1.7568-1.72706-1.5756-3.4134-3.8093-3.4134-6.52486 0-3.91202 3.17131-7.08334 7.08333-7.08334 3.91205 0 7.08335 3.17132 7.08335 7.08334Z" stroke="#6D6D6D" stroke-width="1.5"/><path d="M12.4993 9.16736c0 1.38074-1.1192 2.50004-2.49995 2.50004-1.38071 0-2.5-1.1193-2.5-2.50004 0-1.38071 1.11929-2.5 2.5-2.5 1.38075 0 2.49995 1.11929 2.49995 2.5Z" stroke="#6D6D6D" stroke-width="1.5"/></svg>
